<?xml version="1.0" encoding="utf-8"?>
<!-- Generator: Adobe Illustrator 19.0.0, SVG Export Plug-In . SVG Version: 6.00 Build 0)  -->
<svg version="1.1" id="Layer_1" xmlns="http://www.w3.org/2000/svg" xmlns:xlink="http://www.w3.org/1999/xlink" x="0px" y="0px"
	 viewBox="-9.8 249.1 360 302" style="enable-background:new -9.8 249.1 360 302;" xml:space="preserve">
<g id="sound_off">
	<path d="M75,314.4c-8.3,5.4-14.3,9.8-24.2,9.8H8.3c-9.9,0-18.1,8.1-18.1,18v126.5c0,9.9,8.1,18.1,18.1,18.1h42.5
		c9.9,0,16.1,4,24.8,8.8l96,53.5c8.7,4.8,15.8,0.7,15.8-9.3v-280c0-9.9-6.8-13.7-15.2-8.3L75,314.4z"/>
	<path d="M308,412.5l39.5-39.6c3.5-3.5,3.5-9.3,0-12.8l-12.8-12.8c-3.5-3.5-9.3-3.5-12.8,0L282.5,387L243,347.4
		c-3.5-3.5-9.3-3.5-12.8,0l-12.8,12.8c-3.5,3.5-3.5,9.3,0,12.8l39.5,39.6L217.4,452c-3.5,3.5-3.5,9.3,0,12.8l12.8,12.8
		c3.5,3.5,9.3,3.5,12.8,0l39.5-39.5l39.6,39.5c3.5,3.5,9.3,3.5,12.8,0l12.8-12.8c3.5-3.5,3.5-9.3,0-12.8L308,412.5z"/>
</g>
</svg>
