<svg viewBox="0 0 100 100" xmlns="http://www.w3.org/2000/svg"><symbol viewBox="-289 381 32 32" id="fullscreen"><title>fullscreen</title>  <g id="fullscreen-fullscreen_x5F_alt"> <g> <polygon points="-259.6,407.6 -266.2,401 -269,403.8 -262.4,410.4 -265,413 -257,413 -257,405 		"/> <polygon points="-286.4,386.4 -279.8,393 -277,390.2 -283.6,383.6 -281,381 -289,381 -289,389 		"/> <polygon points="-262.4,383.6 -269,390.2 -266.2,393 -259.6,386.4 -257,389 -257,381 -265,381 		"/> <polygon points="-277,403.8 -279.8,401 -286.4,407.6 -289,405 -289,413 -281,413 -283.6,410.4 		"/> </g> </g> </symbol><symbol viewBox="-272 380 34 34" id="play"><title>play</title> <path d="M-255,414c-9.4,0-17-7.6-17-17s7.6-17,17-17s17,7.6,17,17S-245.6,414-255,414z M-255,382c-8.3,0-15,6.7-15,15s6.7,15,15,15
	c8.3,0,15-6.7,15-15S-246.7,382-255,382z"/> <path d="M-260,405.7v-17.4l15,8.7L-260,405.7z M-258,391.7v10.5l9-5.3L-258,391.7z"/> </symbol><symbol viewBox="-9.8 249.1 360 302" id="sound_off"><title>sound_off</title> <g id="sound_off-sound_off"> <path d="M75,314.4c-8.3,5.4-14.3,9.8-24.2,9.8H8.3c-9.9,0-18.1,8.1-18.1,18v126.5c0,9.9,8.1,18.1,18.1,18.1h42.5
		c9.9,0,16.1,4,24.8,8.8l96,53.5c8.7,4.8,15.8,0.7,15.8-9.3v-280c0-9.9-6.8-13.7-15.2-8.3L75,314.4z"/> <path d="M308,412.5l39.5-39.6c3.5-3.5,3.5-9.3,0-12.8l-12.8-12.8c-3.5-3.5-9.3-3.5-12.8,0L282.5,387L243,347.4
		c-3.5-3.5-9.3-3.5-12.8,0l-12.8,12.8c-3.5,3.5-3.5,9.3,0,12.8l39.5,39.6L217.4,452c-3.5,3.5-3.5,9.3,0,12.8l12.8,12.8
		c3.5,3.5,9.3,3.5,12.8,0l39.5-39.5l39.6,39.5c3.5,3.5,9.3,3.5,12.8,0l12.8-12.8c3.5-3.5,3.5-9.3,0-12.8L308,412.5z"/> </g> </symbol><symbol viewBox="-293 386 24 22" id="sound_on"><title>sound_on</title> <g> <g> <path d="M-273.2,388.3l-1.1,1.7c2,1.6,3.3,4.2,3.3,7c0,2.8-1.3,5.3-3.3,7l1.1,1.7c2.6-2,4.2-5.1,4.2-8.7
			C-269,393.5-270.7,390.4-273.2,388.3z M-275.5,391.7l-1.1,1.7c1,0.9,1.6,2.2,1.6,3.6s-0.6,2.7-1.6,3.6l1.1,1.7
			c1.5-1.3,2.5-3.2,2.5-5.3C-273,394.9-274,393-275.5,391.7z M-281,386c-1.2,0-1.5,0.7-1.5,0.7s-3.1,3.4-5.2,4.8
			c-0.4,0.2-0.8,0.5-1.6,0.5h-1.7c-1.1,0-2,0.9-2,2v6c0,1.1,0.9,2,2,2h1.7c0.8,0,1.2,0.2,1.6,0.5c2.1,1.5,5.2,4.8,5.2,4.8
			s0.4,0.7,1.5,0.7c1.1,0,2-0.9,2-2v-18C-279,386.9-279.9,386-281,386z"/> </g> </g> </symbol><symbol viewBox="-44.6 145.4 503.3 503.3" id="stop"><title>stop</title> <g> <rect x="115.8" y="303.3" width="182.4" height="187.3"/> <path d="M207,145.4C68.3,145.4-44.6,258.3-44.6,397S68.3,648.6,207,648.6S458.6,535.8,458.6,397S345.8,145.4,207,145.4z M207,616.4
		C86,616.4-12.4,518-12.4,397c0-121,98.4-219.4,219.4-219.4c121,0,219.4,98.4,219.4,219.4C426.4,518,328,616.4,207,616.4z"/> </g> </symbol></svg>